<?xml version="1.0" encoding="UTF-8" standalone="no"?>
<!-- Created with Inkscape (http://www.inkscape.org/) -->

<svg
   width="30.00001mm"
   height="30.000011mm"
   viewBox="0 0 30.00001 30.000011"
   version="1.1"
   id="svg1"
   xml:space="preserve"
   xmlns="http://www.w3.org/2000/svg"
   xmlns:svg="http://www.w3.org/2000/svg"><defs
     id="defs1" /><g
     id="layer1"
     transform="translate(-122.29634,-139.57556)"><g
       id="g2"
       transform="translate(-17.138771,-24.217989)"><rect
         style="opacity:0.98139;fill:none;fill-rule:evenodd;stroke-width:0.499997;stroke-miterlimit:12.4;stroke-opacity:0.49806;paint-order:stroke fill markers"
         id="rect1-3"
         width="30"
         height="30"
         x="139.4351"
         y="163.79355" /><path
         style="fill:#25201e;stroke-width:0.999997"
         d="m 152.70589,189.19896 c -1.04744,-0.21657 -1.85438,-0.90864 -2.44046,-2.09307 l -0.35463,-0.71672 -0.55058,-3.7e-4 -0.55058,-3.6e-4 -0.49043,-0.21713 c -1.07238,-0.47479 -1.21775,-0.72272 -2.5595,-4.36488 l -0.97161,-2.63745 -0.49336,-0.36585 c -0.27134,-0.20122 -0.72387,-0.61808 -1.00563,-0.92636 l -0.51227,-0.5605 -0.33354,-0.70296 c -0.75091,-1.58254 -0.74638,-3.16326 0.0137,-4.77354 l 0.34723,-0.73565 0.74673,-0.73637 0.74674,-0.73635 0.66589,-0.32609 c 0.36623,-0.17934 1.00625,-0.39625 1.42225,-0.48202 l 0.75637,-0.15592 4.36484,0.31958 c 2.40067,0.17577 4.78417,0.34338 5.29667,0.37245 l 0.93182,0.0529 1.31386,-0.55181 c 1.50366,-0.63152 1.41969,-0.61373 1.67778,-0.35564 l 0.19617,0.19618 v 3.47404 c 0,3.65169 -0.006,3.72828 -0.3156,3.89385 l -0.19443,0.10406 -1.38055,-0.51792 -1.38055,-0.51792 -2.26337,0.2715 c -1.24486,0.14933 -2.33581,0.29165 -2.42434,0.31627 l -0.16097,0.0448 -0.4037,0.84132 -0.40369,0.84134 -0.6911,0.69109 -0.69108,0.69109 0.71112,2.01999 0.71114,2.01999 0.0405,0.71259 0.0404,0.71259 -0.26365,0.53889 -0.26366,0.53889 -0.37509,0.31491 -0.3751,0.31491 0.32472,0.64055 c 1.01812,2.00839 3.39524,2.14638 4.27595,0.24821 l 0.18204,-0.39235 0.002,-0.64333 0.002,-0.64333 0.13026,-0.17814 0.13026,-0.17814 h 0.27896 0.27895 l 0.13957,0.18391 0.13957,0.18391 -0.0561,0.771 -0.0561,0.77098 -0.23619,0.51591 c -0.12991,0.28374 -0.40049,0.69777 -0.60131,0.92005 l -0.36512,0.40414 -0.60248,0.29027 -0.60249,0.29027 -0.53947,0.0473 c -0.29671,0.026 -0.72828,0.008 -0.95904,-0.0394 z m -2.64249,-3.95839 c 1.22819,-0.52551 1.28787,-1.19898 0.3469,-3.9143 l -0.70645,-2.03857 -0.15284,0.0678 c -0.81911,0.3635 -2.28362,0.52174 -3.09268,0.33415 -0.21428,-0.0497 -0.39759,-0.0817 -0.40737,-0.0712 -0.0439,0.0471 1.8072,4.8788 1.95622,5.10625 0.0919,0.14025 0.33212,0.34213 0.53383,0.44863 l 0.36673,0.19361 0.42001,0.005 c 0.23101,0.002 0.56205,-0.0564 0.73565,-0.13071 z m -1.7762,-6.57888 c 1.69148,-0.3585 3.07805,-1.64586 3.5058,-3.25494 0.15818,-0.59506 0.15051,-0.59257 2.88431,-0.93366 l 2.51873,-0.31424 v -1.87341 -1.8734 l -4.63459,-0.3406 c -2.54901,-0.18733 -4.94355,-0.33315 -5.32118,-0.32404 l -0.68661,0.0166 -0.58852,0.21947 c -1.5704,0.58562 -2.60334,1.74518 -2.95361,3.31565 l -0.16141,0.72375 0.0586,0.55138 c 0.29444,2.76906 2.75961,4.64252 5.37846,4.08747 z m -1.73354,-1.84188 c -0.78448,-0.27963 -1.46664,-0.98701 -1.71816,-1.78167 l -0.12081,-0.38169 0.0476,-0.66539 0.0476,-0.6654 0.25874,-0.4415 c 0.5062,-0.86376 1.36336,-1.3396 2.40979,-1.33777 l 0.54652,7.8e-4 0.49249,0.22934 c 0.5816,0.27083 1.05101,0.7149 1.34872,1.2759 l 0.21521,0.40553 v 0.78469 0.7847 l -0.21068,0.39234 c -0.28282,0.52666 -0.86607,1.07349 -1.40435,1.31665 l -0.44139,0.19938 -0.58852,-0.005 c -0.32369,-0.003 -0.72093,-0.0528 -0.88277,-0.11048 z m 1.57709,-1.04649 c 1.50524,-0.68364 1.21204,-2.89931 -0.42458,-3.20861 -0.99948,-0.18889 -1.98624,0.64005 -1.98624,1.66857 0,1.23757 1.27852,2.0543 2.41082,1.54004 z m 11.67111,-6.06864 c -0.0252,-0.0252 -0.36803,0.0887 -0.76183,0.25302 l -0.716,0.29884 -0.0265,2.00179 -0.0265,2.00179 0.76211,0.29766 0.76211,0.29767 0.0262,-2.55248 c 0.0144,-1.40386 0.005,-2.57309 -0.0197,-2.59829 z m 1.56285,17.56826 c -0.45754,-0.24045 -0.93798,-0.73096 -1.13782,-1.16167 l -0.18204,-0.39235 -0.005,-2.8445 -0.005,-2.84451 -0.1817,-0.40005 c -0.57062,-1.25641 -2.34211,-1.33638 -2.9558,-0.13345 l -0.19313,0.37855 v 0.5706 0.57061 l -0.15269,0.21799 -0.15269,0.218 h -0.2374 -0.23739 l -0.16328,-0.2492 -0.16328,-0.2492 0.0563,-0.6581 c 0.12954,-1.51319 1.05703,-2.51883 2.43866,-2.64412 l 0.56874,-0.0515 0.41922,0.11748 c 0.23058,0.0646 0.61786,0.26175 0.86062,0.43806 l 0.44139,0.32059 0.29427,0.53168 0.29425,0.53169 0.0491,3.04067 0.0491,3.04069 0.12887,0.22594 c 0.45719,0.80158 1.78934,0.77145 2.20837,-0.05 l 0.13981,-0.27408 0.0448,-0.83374 0.0448,-0.83373 0.2258,-0.51784 0.2258,-0.51784 0.48003,-0.43159 0.48003,-0.43159 0.48162,-0.15997 c 0.2649,-0.088 0.66737,-0.14627 0.8944,-0.12952 l 0.41276,0.0305 0.098,0.15647 c 0.0539,0.0861 0.0687,0.27298 0.033,0.41538 l -0.065,0.2589 -0.26825,0.055 c -1.07564,0.22053 -1.44457,0.43583 -1.78508,1.0417 l -0.21902,0.38967 -0.0642,0.9503 -0.0642,0.9503 -0.27388,0.46648 -0.27387,0.46648 -0.51049,0.29277 -0.51049,0.29277 -0.63756,-0.003 -0.63756,-0.003 z m -5.41431,-3.67116 c -0.41202,-0.15242 -0.36758,-0.7851 0.0648,-0.92233 0.4151,-0.13175 0.80584,0.33548 0.60087,0.71848 -0.12168,0.22735 -0.38453,0.30785 -0.66566,0.20385 z m 6.52239,-8.49388 c -0.32357,-0.0852 -0.39011,-0.66733 -0.10169,-0.88961 l 0.15909,-0.12261 h 1.82308 1.82306 l 0.218,0.1527 0.218,0.15268 v 0.23409 0.2341 l -0.218,0.15269 -0.218,0.15269 -1.76825,-0.0114 c -0.97253,-0.006 -1.84342,-0.0312 -1.93529,-0.0553 z m -0.15664,-2.50313 c -0.0647,-0.0647 -0.1177,-0.23974 -0.1177,-0.3889 v -0.27118 l 0.19537,-0.10457 0.19538,-0.10456 1.19878,0.0275 1.19878,0.0275 0.14745,0.26304 0.14745,0.26304 -0.1836,0.20287 -0.18361,0.20287 h -1.2403 -1.2403 z m 0.0618,-2.35898 c -0.0837,-0.0674 -0.1782,-0.19769 -0.21001,-0.28946 l -0.0578,-0.16686 0.18239,-0.22549 0.18239,-0.22549 1.79894,-0.0263 1.79894,-0.0263 0.24522,0.12684 0.24521,0.12684 0.0324,0.22633 0.0324,0.22632 -0.17022,0.18808 -0.17021,0.18809 h -1.87874 -1.87873 z"
         id="path2" /></g></g></svg>
