<?xml version="1.0" encoding="UTF-8" standalone="no"?>
<!-- Created with Inkscape (http://www.inkscape.org/) -->

<svg
   width="30.000002mm"
   height="30.000008mm"
   viewBox="0 0 30.000002 30.000008"
   version="1.1"
   id="svg1"
   xml:space="preserve"
   xmlns="http://www.w3.org/2000/svg"
   xmlns:svg="http://www.w3.org/2000/svg"><defs
     id="defs1" /><g
     id="layer1"
     transform="translate(-75.000002,-42.300402)"><g
       id="g4"><rect
         style="opacity:1;fill:none;fill-rule:evenodd;stroke-width:0.499997;stroke-miterlimit:12.4;stroke-opacity:0.49806;paint-order:stroke fill markers"
         id="rect1-3-2-2"
         width="30"
         height="30"
         x="75"
         y="42.300404" /><path
         style="fill:#25201e;stroke-width:1"
         d="m 83.567589,69.823098 c -1.42323,-0.599576 -2.361235,-2.234329 -2.084658,-3.633117 l 0.09575,-0.484255 -0.456528,0.08886 c -3.01138,0.586173 -5.086237,-3.206372 -3.053433,-5.581246 1.181619,-1.380459 3.417712,-1.48565 4.785239,-0.22511 0.46353,0.427267 0.55263,0.658626 0.33679,0.87448 -0.19124,0.191232 -0.35304,0.142952 -0.76344,-0.22782 -2.52145,-2.277976 -6.070139,1.206447 -3.672016,3.605515 1.232228,1.232702 2.556791,1.1209 4.076476,-0.344087 1.50782,-1.453542 1.81146,-2.428447 1.15243,-3.700126 -0.34605,-0.667766 -0.34439,-0.80191 0.0137,-1.11004 0.15951,-0.137233 1.19596,-1.053894 2.30321,-2.037018 l 2.01318,-1.787501 -0.25493,-0.254931 -0.25493,-0.254926 -1.29057,1.276954 c -1.35976,1.345426 -1.71031,1.535731 -1.79003,0.971753 -0.0273,-0.192941 0.21382,-0.487427 1.24573,-1.521638 l 1.27955,-1.282392 -0.27303,-0.27303 -0.27303,-0.273026 -1.28239,1.279545 c -1.03422,1.031913 -1.3287,1.273004 -1.52164,1.24573 -0.57333,-0.08103 -0.37903,-0.439992 0.96993,-1.791956 l 1.27682,-1.279654 -0.23883,-0.254205 -0.23881,-0.25421 -1.31187,1.299024 c -1.36853,1.355113 -1.43172,1.397887 -1.68743,1.142179 -0.26004,-0.260046 -0.20573,-0.340424 1.14386,-1.692791 l 1.30068,-1.30337 -0.25408,-0.238696 -0.25408,-0.238694 -1.28786,1.274287 c -1.35699,1.342684 -1.707653,1.532811 -1.787341,0.969083 -0.02729,-0.192941 0.213819,-0.487428 1.245731,-1.521635 l 1.27955,-1.282393 -0.27303,-0.273029 -0.27303,-0.27303 -1.28239,1.279545 c -1.03421,1.031913 -1.328694,1.273004 -1.521637,1.24573 -0.573326,-0.08103 -0.379037,-0.439992 0.969929,-1.791955 l 1.276808,-1.279655 -0.23881,-0.254206 -0.23881,-0.254205 -1.311885,1.29902 c -1.368521,1.355117 -1.431708,1.397887 -1.687417,1.142183 -0.260051,-0.260049 -0.205727,-0.340427 1.143848,-1.692791 l 1.300694,-1.303374 -0.254081,-0.238691 -0.254079,-0.238695 -1.287864,1.274282 c -1.356989,1.342685 -1.70765,1.532813 -1.787338,0.969087 -0.02729,-0.192941 0.213819,-0.487427 1.245734,-1.521637 l 1.279549,-1.282393 -0.273033,-0.27303 -0.273033,-0.27303 -1.28239,1.279549 c -1.360927,1.357901 -1.721525,1.551805 -1.789776,0.962395 -0.03685,-0.318137 3.593683,-3.986201 4.193429,-4.236789 1.153072,-0.481788 1.268802,-0.400508 5.632512,3.956091 l 3.80863,3.802436 0.29473,-0.238819 c 0.16209,-0.131349 1.61456,-1.34316 3.22773,-2.692917 4.13487,-3.459722 6.650721,-5.470446 6.933541,-5.541427 0.67794,-0.17015 1.3171,0.254153 1.40842,0.93496 0.0828,0.617216 -0.009,0.739424 -5.153941,6.898752 -1.62239,1.942067 -3.03496,3.641407 -3.13905,3.776317 l -0.18927,0.245292 3.80279,3.808985 c 4.356981,4.364097 4.438231,4.479772 3.956441,5.632857 -0.25059,0.599746 -3.918661,4.230267 -4.236791,4.193427 -0.58941,-0.06825 -0.39551,-0.428852 0.9624,-1.789775 l 1.279551,-1.282393 -0.273041,-0.27303 -0.27303,-0.27303 -1.28239,1.279549 c -1.03421,1.031914 -1.3287,1.273001 -1.52164,1.245727 -0.56373,-0.07968 -0.3736,-0.430343 0.96909,-1.787338 l 1.27428,-1.287863 -0.2387,-0.254078 -0.23869,-0.254078 -1.30337,1.300688 c -1.35236,1.349584 -1.43275,1.4039 -1.69279,1.14385 -0.25571,-0.255703 -0.21293,-0.318895 1.14219,-1.687419 l 1.29901,-1.311873 -0.2542,-0.238815 -0.25421,-0.23882 -1.27965,1.276814 c -1.35196,1.348965 -1.71092,1.543253 -1.79196,0.969932 -0.0273,-0.192941 0.21382,-0.487427 1.24573,-1.521638 l 1.27955,-1.282393 -0.27303,-0.27303 -0.27303,-0.273025 -1.28239,1.279545 c -1.03422,1.031913 -1.3287,1.273003 -1.52164,1.24573 -0.56373,-0.07969 -0.3736,-0.430346 0.96909,-1.787338 l 1.27428,-1.287863 -0.2387,-0.254078 -0.23869,-0.254078 -1.30337,1.300688 c -1.35236,1.349584 -1.43275,1.403896 -1.6928,1.143847 -0.2557,-0.255704 -0.21293,-0.318893 1.14219,-1.68742 l 1.29902,-1.311873 -0.2542,-0.238816 -0.25421,-0.238814 -1.27965,1.276809 c -1.35197,1.348965 -1.71092,1.543257 -1.79196,0.969932 -0.0273,-0.192941 0.21381,-0.487427 1.24573,-1.521634 l 1.27955,-1.282393 -0.27304,-0.27303 -0.27302,-0.27303 -1.2824,1.279546 c -1.03421,1.031913 -1.32869,1.273004 -1.52163,1.24573 -0.56398,-0.07972 -0.37368,-0.430271 0.97175,-1.790035 l 1.27695,-1.29056 -0.25515,-0.255153 -0.25515,-0.255149 -0.74459,0.830374 c -1.93773,2.160997 -3.97774,4.475006 -3.97774,4.512011 0,0.02259 0.15192,0.266809 0.33759,0.54272 1.81,2.689643 -1.08806,6.222987 -4.07278,4.96559 z m 2.44943,-0.835396 c 1.55656,-0.813155 1.86716,-2.965736 0.59974,-4.156388 -0.3996,-0.375389 -0.3887,-0.508107 0.0861,-1.048892 l 0.38962,-0.443776 -0.38629,-0.419082 c -0.65766,-0.713474 -0.73592,-1.592394 -0.13525,-1.518888 0.19251,0.02354 0.28407,0.12243 0.38401,0.414672 0.12725,0.372148 0.50261,0.863846 0.65945,0.863846 0.27414,0 11.50768,-13.156287 13.848281,-16.218584 0.0839,-0.109786 -3.105581,3.049399 -7.087761,7.020416 -7.61704,7.595669 -7.65359,7.628245 -7.75481,6.911867 -0.0286,-0.202007 1.1236,-1.4002 7.23598,-7.525124 7.990211,-8.006622 7.884331,-7.855971 2.2297,-3.172634 -3.83278,3.174422 -10.77651,9.170435 -11.30442,9.76153 -0.16861,0.188789 -0.1666,0.217536 0.0479,0.686763 0.61627,1.34849 0.23264,2.572202 -1.30972,4.177697 -0.8679,0.903436 -1.01933,1.113017 -1.16418,1.611289 -0.641221,2.205715 1.64172,4.110555 3.66173,3.055288 z m -1.98396,-0.584876 c -1.81559,-0.894963 -1.19164,-3.581606 0.82704,-3.56121 1.48386,0.01497 2.34068,1.66699 1.51316,2.917454 -0.47067,0.711226 -1.58274,1.017142 -2.3402,0.643756 z m 1.35892,-0.775715 c 0.51363,-0.265614 0.68377,-1.1115 0.31727,-1.577423 -0.70112,-0.891345 -2.09763,-0.341948 -1.96101,0.771484 0.0951,0.774757 0.92095,1.179702 1.64374,0.805939 z m 15.503541,-1.529538 c 0.95989,-1.029156 0.99958,-0.967163 -3.484861,-5.443036 l -3.6785,-3.671468 -0.56981,0.645019 c -0.3134,0.354763 -0.56981,0.68178 -0.56981,0.726708 0,0.09056 7.900081,8.017244 7.990341,8.017244 0.0311,0 0.17185,-0.12351 0.31264,-0.274467 z M 89.631669,54.126582 90.307599,53.5585 86.634389,49.878269 c -4.48393,-4.492508 -4.50469,-4.505394 -5.515505,-3.42349 l -0.245404,0.262656 3.987689,3.988613 c 2.19322,2.193736 4.01173,3.988611 4.04113,3.988611 0.0294,0 0.35761,-0.255635 0.72937,-0.568077 z m -9.66469,10.100566 c -0.496626,-0.174153 -1.120852,-0.853858 -1.207293,-1.314574 -0.370843,-1.976787 2.005241,-3.155059 3.288063,-1.630513 1.20153,1.427933 -0.309272,3.5663 -2.08077,2.945087 z m 1.217203,-0.844906 c 0.634944,-0.387151 0.662659,-1.325 0.05329,-1.804306 -0.465924,-0.366494 -1.311812,-0.196356 -1.577423,0.317277 -0.540652,1.045501 0.531934,2.091991 1.524103,1.487029 z"
         id="path4" /></g></g></svg>
