<?xml version="1.0" encoding="UTF-8" standalone="no"?>
<!-- Created with Inkscape (http://www.inkscape.org/) -->

<svg
   width="29.999996mm"
   height="30.000004mm"
   viewBox="0 0 29.999996 30.000004"
   version="1.1"
   id="svg1"
   xml:space="preserve"
   xmlns:inkscape="http://www.inkscape.org/namespaces/inkscape"
   xmlns:sodipodi="http://sodipodi.sourceforge.net/DTD/sodipodi-0.dtd"
   xmlns="http://www.w3.org/2000/svg"
   xmlns:svg="http://www.w3.org/2000/svg"><sodipodi:namedview
     id="namedview1"
     pagecolor="#ffffff"
     bordercolor="#000000"
     borderopacity="0.25"
     inkscape:showpageshadow="2"
     inkscape:pageopacity="0.0"
     inkscape:pagecheckerboard="0"
     inkscape:deskcolor="#d1d1d1"
     inkscape:document-units="mm" /><defs
     id="defs1" /><g
     inkscape:label="Layer 1"
     inkscape:groupmode="layer"
     id="layer1"
     transform="translate(-56.597211,-119.14705)"><g
       id="g1"
       transform="matrix(0.42857143,0,0,0.42857143,32.341263,68.084028)"
       style="stroke-width:2.33334"><rect
         style="opacity:0.98139;fill:none;fill-rule:evenodd;stroke-width:1.16666;stroke-miterlimit:12.4;stroke-opacity:0.49806;paint-order:stroke fill markers"
         id="rect1"
         width="70"
         height="70"
         x="56.59721"
         y="119.14705" /><path
         style="fill:#25201e;stroke-width:2.33334"
         d="m 74.999796,185.84676 c -0.6453,-0.6453 -0.650011,-0.68139 -0.289161,-2.21528 0.732951,-3.11561 0.391799,-4.56557 -1.485983,-6.3157 -5.874184,-5.47487 1.544204,-15.68893 9.440594,-12.99836 1.56473,0.53315 1.06057,1.2379 4.99614,-6.98378 3.35626,-7.01146 3.35626,-7.01146 2.65993,-8.98207 -0.66579,-1.88417 -0.67574,-1.99028 -0.2269,-2.41895 5.643843,-5.39016 30.084174,-25.9349 28.283404,-23.77524 -0.41858,0.50199 -5.75111,6.80631 -11.85007,14.00959 -10.935021,12.91498 -21.006014,29.53199 -19.548684,32.25505 1.77949,3.32499 -2.89005,10.60745 -6.80152,10.60745 -1.24699,0 -2.602815,2.00699 -3.518185,5.20786 -0.642061,2.24518 -0.835867,2.43313 -1.659565,1.60943 z m 5.5341,-9.15232 c 2.30433,-0.79656 4.05378,-2.63832 4.61204,-4.8554 1.30686,-5.19001 -5.44482,-7.82279 -9.939933,-3.87603 -4.836539,4.24654 -0.806026,10.8518 5.327893,8.73143 z M 94.347399,148.0203 c 0.17463,-0.17462 0.3175,-0.56753 0.3175,-0.87312 0,-0.3056 -0.14287,-0.6985 -0.3175,-0.87313 -0.17462,-0.17462 -0.56753,-0.3175 -0.873123,-0.3175 -0.3056,0 -0.6985,0.14288 -0.87313,0.3175 -0.17462,0.17463 -0.3175,0.56753 -0.3175,0.87313 0,0.30559 0.14288,0.6985 0.3175,0.87312 0.17463,0.17463 0.56753,0.3175 0.87313,0.3175 0.305593,0 0.698503,-0.14287 0.873123,-0.3175 z m -31.82938,14.02119 c -2.689649,-0.94018 -4.436434,-3.46921 -4.426145,-6.40828 0.02199,-6.28238 6.968495,-10.82759 12.36314,-8.08941 1.57818,0.80104 10.432652,0.0109 16.687112,-1.48918 0.49856,-0.11957 2.30219,3.36576 1.9296,3.72877 -0.0524,0.0511 -3.50157,0.36443 -7.6647,0.6963 -7.569338,0.60339 -7.569338,0.60339 -7.5509,2.73648 0.019,2.19805 -0.559735,4.0832 -1.609701,5.2434 -0.286474,0.31655 -0.415838,0.85671 -0.374197,1.56244 0.102296,1.7337 -1.148075,2.59052 -2.62608,1.79951 -0.373913,-0.20011 -0.838286,-0.16422 -1.711644,0.13229 -1.354282,0.45979 -3.828238,0.50303 -5.016485,0.0877 z m 5.044381,-2.29761 c 5.301042,-2.40772 5.766142,-9.75372 0.686514,-10.84311 -4.387429,-0.94093 -8.956403,3.51107 -7.998077,7.79332 0.679182,3.03491 4.15358,4.48414 7.311563,3.04979 z m 30.568369,-11.27834 c 1.50836,-1.86997 7.661991,-9.07153 7.969731,-9.32692 0.50425,-0.4185 18.83165,-8.77586 18.96118,-8.64637 0.42156,0.42143 -2.29785,2.34171 -13.62569,9.62163 -7.11405,4.5719 -13.113221,8.43938 -13.331501,8.5944 -0.31739,0.22541 -0.31213,0.1768 0.0263,-0.24274 z"
         id="path1" /></g></g></svg>
